<?xml version="1.0" encoding="UTF-8"?>
<svg id="Ebene_1" data-name="Ebene 1" xmlns="http://www.w3.org/2000/svg" version="1.1" viewBox="0 0 86 86">
  <defs>
    <style>
      .cls-1 {
        fill: #fff;
        stroke-width: 0px;
      }
    </style>
  </defs>
  <path class="cls-1" d="M83.9,34.2c.9-1.1,1.2-2.5.7-4-.5-1.4-1.6-2.4-2.9-2.8-3.8-9.1-10.7-16.5-19.6-21.1-4.9-2.5-10.2-4-15.5-4.4-1-1.5-3-2.3-4.8-1.7-.9.3-1.7.9-2.2,1.7-3.2.3-6.4.9-9.5,1.9-12,3.9-21.1,12.8-25.7,23.6,0,0-.2,0-.2,0-2.2.7-3.5,3.1-2.7,5.4.2.5.4,1,.7,1.3-1.7,7.2-1.5,15,.9,22.5,2.4,7.4,6.7,13.9,12.5,18.8,0,.5,0,1,.2,1.5.7,2.2,3.1,3.5,5.4,2.7,0,0,.1,0,.2,0,.9.5,1.7,1,2.6,1.5,6,3.1,12.5,4.6,19,4.6s8.8-.7,13-2.1c3.1-1,6.1-2.4,8.8-4,.9.3,1.8.4,2.8,0,1.9-.6,3-2.4,2.9-4.2,4.1-3.5,7.4-7.8,9.9-12.7,4.6-9,5.7-19,3.5-28.7ZM76.9,29h-23.2s-7.2-22-7.2-22c4.6.4,9.1,1.7,13.3,3.9,7.7,3.9,13.7,10.3,17.1,18.1ZM72.8,34l-14.2,10.3-3.4-10.3h17.5ZM31.6,8.7c2.7-.9,5.4-1.4,8.2-1.7.5.7,1.2,1.1,2,1.4l6.7,20.7H9.1c4.1-9.3,12-17,22.5-20.4ZM7.8,55.3c-2.1-6.5-2.3-13.2-.9-19.5l1,.7,1.8-2.4h40.4c0,0,4.4,13.3,4.4,13.3l-13.2,9.6,1.2-1.7-4-2.9-2.9,4,3.2,2.3-17.7,12.9c-.8-.2-1.6-.3-2.4,0-5-4.4-8.8-10-10.9-16.5ZM54.4,79.1c-9.4,3.1-19.4,2.3-28.2-2.2-.7-.3-1.3-.7-2-1.1l18.8-13.7,2.8,2.1,2.9-4-1.5-1.1,8.8-6.4,6.5,20.1-1.7,2.4,1,.8c-2.3,1.4-4.8,2.5-7.4,3.4ZM76,60.7c-2.1,4.2-5,7.9-8.5,10.9l-7.2-22.2,18.8-13.7c1.9,8.4.9,17.2-3.1,25Z"/>
  <rect class="cls-1" x="30.2" y="49" width="5" height="4.9" transform="translate(-28.1 47.7) rotate(-54)"/>
  <rect class="cls-1" x="11.2" y="35.2" width="5" height="4.9" transform="translate(-24.8 26.6) rotate(-54)"/>
  <rect class="cls-1" x="49.1" y="62.7" width="5" height="4.9" transform="translate(-31.5 68.7) rotate(-54)"/>
  <rect class="cls-1" x="23.9" y="44.4" width="5" height="4.9" transform="translate(-27 40.7) rotate(-54)"/>
  <rect class="cls-1" x="55.5" y="67.3" width="5" height="4.9" transform="translate(-32.6 75.7) rotate(-54)"/>
  <rect class="cls-1" x="17.5" y="39.8" width="5" height="4.9" transform="translate(-25.9 33.6) rotate(-54)"/>
</svg>