<?xml version="1.0" encoding="UTF-8"?>
<svg id="Ebene_1" data-name="Ebene 1" xmlns="http://www.w3.org/2000/svg" version="1.1" viewBox="0 0 761.1 85.8">
  <defs>
    <style>
      .cls-1 {
        fill: #fff;
        stroke-width: 0px;
      }
    </style>
  </defs>
  <path class="cls-1" d="M751.9,47.8c0,8.9-6,15.9-14.9,15.9s-15.2-7.1-15.2-15.8,6.4-15.8,15.2-15.8,14.9,6.9,14.9,15.7h0ZM761.1,47.5c0-13.4-10-23.7-23.8-23.7s-24.8,10.6-24.8,24.1,10.5,24,24.2,24,24.4-10.7,24.4-24.4h0ZM661,50.2c-2.5,17.8-2.9,20.5-3,20.9h0c0,.1,4.1.1,4.1.1h4.6c0-.5.4-3.7,1.6-14.3.5-4,.8-7.7,1.1-11.4h0c1.5,3.5,3.1,6.7,4.9,10,1.8,3.2,4.8,8.4,8.8,15h1.1c4-6.5,6.9-11.6,8.7-14.8,1.8-3.4,3.3-6.1,5.1-10.1h0c.2,3.7.5,7.2,1,11.3,1.3,10.7,1.7,13.9,1.7,14.2h0c0,.1,4.7.1,4.7.1h4.4c0-.5-.5-3.2-2.8-21l-3.5-26.2h-1.1c-15.1,25.6-16.8,28.5-18.5,32h0c-1.8-3.7-3.4-6.6-18.2-32h-1.1l-3.7,26.2ZM630.5,50.2v20.9h0c0,.1,13,.1,13,.1h11v-7.6h-14.9v-12.4h13v-7.6h-13v-11.7h14.5v-7.6h-23.5v25.8ZM615.7,47.1c0,6.1-2.4,10.3-5.8,13-2.6,2-6,3.1-9.5,3.1s-2.4,0-3.4-.2c0,0-.1,0-.1-.1v-30.5c.9-.1,2.3-.2,3.6-.2,4,0,7.4,1.1,9.8,2.9,3.5,2.7,5.5,7.1,5.5,12h0ZM625,46.8c0-7.1-2.7-14.6-9.5-18.9-4-2.5-9.2-3.8-15.9-3.8s-4.2,0-6.7.1c-2.4.1-3.9.3-5,.4v46.3h0c1.2.2,2.8.3,4.1.4,1.7,0,4.4.1,7,.1,6.4,0,12-1.4,16.2-4.6,6.2-4.4,9.8-11.1,9.8-19.9h0ZM563.7,44.2v-19.7h0c0-.1-3.9-.1-3.9-.1h-4.4v19c0,5.4,0,7.3,0,10.1h-.1c-2.8-3.1-5.2-5.5-7.8-8.2-4.1-4.2-10.4-10.5-21.5-21.4h-1.1v47.2h0c0,.1,4,.1,4,.1h4.4v-19.9c0-4.7,0-6.5,0-8.9h0c3.4,3.7,5.5,5.7,8.4,8.6,4.1,4.1,10.3,10.4,20.9,20.8h1.1v-27.6ZM510.2,47.8c0,8.9-6,15.9-14.9,15.9s-15.2-7.1-15.2-15.8,6.4-15.8,15.2-15.8,14.9,6.9,14.9,15.7h0ZM519.4,47.5c0-13.4-10-23.7-23.8-23.7s-24.8,10.6-24.8,24.1,10.5,24,24.2,24,24.4-10.7,24.4-24.4h0ZM465.3,44.2v-19.8h-9v46.8h9v-27ZM450.4,59.1c0-5.3-2.4-8.6-6.1-12-2.5-2.3-4.5-3.8-5.8-5.3-1.3-1.4-2-2.6-2-4.6,0-3.2,2.8-5.2,6.6-5.2s1.9.1,2.8.3c.7.1,1.6.4,2.2.6h.1c0-4.1.1-5.1.2-8-1.5-.5-4-.8-6.1-.8-10.4,0-15.2,6.4-15.2,13.2s2.3,8.2,5.2,11.2c1.5,1.4,3.1,2.8,5,4.4,2.3,1.9,3.4,3.7,3.4,5.8,0,3.5-2.9,5.3-6.3,5.3s-3.7-.3-5-.7c-.8-.2-1.6-.5-2.3-.8h-.1c-.1,4-.2,4.9-.2,8,2,.9,5.5,1.4,8.4,1.4,9.3,0,15.2-5.6,15.2-12.7h0ZM420.9,44.2v-19.8h-9v46.8h9v-27ZM400.1,44.2c7.6-16.6,8.7-19.3,8.9-19.7h0c0-.1-4.3-.1-4.3-.1h-5.2c-.2.5-1.4,3.3-6.7,15.6-2.8,6.5-4,9.5-5.6,14.2h-.1c-1.7-4.7-2.8-7.7-5.6-14.2-5.4-12.4-6.5-15.1-6.7-15.5h0c0-.1-5.2-.1-5.2-.1h-4.9c.2.5,1.4,3.2,8.9,19.8l12.7,27.8h1.1l12.7-27.8ZM324.5,50.2v20.9h0c0,.1,13,.1,13,.1h11v-7.6h-14.9v-12.4h13v-7.6h-13v-11.7h14.5v-7.6h-23.5v25.8ZM296.1,50.2v21h23.8v-7.6h-14.5c-.2,0-.2,0-.2-.4V24.4h-9v25.8ZM254.9,47.7c0,15.1,11.2,24.2,25.3,24.2s3.5-.1,5.6-.4c1.3-.2,2.9-.5,3.9-.8,0-1.7-.2-6.2-.3-7.9h-.1c-1,.3-1.8.5-2.7.7-1.7.3-3.5.4-5.5.4-9.9,0-16.6-6.5-16.6-16.1s6.8-15.9,17.5-15.9,3.5.2,4.8.4c1,.2,1.7.3,2.5.5h.2c.1-3.3.2-5.6.3-8.1-1-.2-2.5-.5-3.8-.6-1.2-.1-2.4-.2-4.2-.2-16.7,0-26.9,10.1-26.9,23.9h0ZM249.5,44.2v-19.8h-9v46.8h9v-27ZM199.3,47.7c0,15.1,11.2,24.2,25.3,24.2s3.5-.1,5.6-.4c1.3-.2,2.9-.5,3.9-.8,0-1.7-.2-6.2-.3-7.9h-.1c-1,.3-1.8.5-2.7.7-1.7.3-3.5.4-5.5.4-9.9,0-16.6-6.5-16.6-16.1s6.8-15.9,17.5-15.9,3.5.2,4.8.4c1,.2,1.7.3,2.5.5h.2c.1-3.3.2-5.6.3-8.1-1-.2-2.5-.5-3.8-.6-1.2-.1-2.4-.2-4.2-.2-16.7,0-26.9,10.1-26.9,23.9h0ZM190.7,44.9c9.8-17.4,11-19.8,11.3-20.3v-.2h-9.5c-.2.5-1.7,3.3-5,9.4-1.9,3.4-3.7,6.7-5,9.4h-.1c-1.3-2.6-3.2-6.2-5-9.5-3.2-5.9-4.6-8.6-4.9-9.1h0c0-.1-4.6-.1-4.6-.1h-5.5c.3.7,1.6,3.2,11.3,20.5l4.2,7.4v18.9h9v-19.4l3.9-6.9ZM143.2,50.2v21h23.8v-7.6h-14.5c-.2,0-.2,0-.2-.4V24.4h-9v25.8ZM122.7,31.9h14.5v-7.6h-23.5v46.8h9v-18.8h13v-7.6h-13v-12.9Z"/>
  <g>
    <path class="cls-1" d="M82.9,34.1c.9-1.1,1.2-2.5.7-4-.5-1.4-1.6-2.4-2.9-2.8-3.8-9.1-10.7-16.5-19.6-21.1-4.9-2.5-10.2-4-15.5-4.4-1-1.5-3-2.3-4.8-1.7-.9.3-1.7.9-2.2,1.7-3.2.3-6.4.9-9.5,1.9C17,7.7,7.9,16.6,3.3,27.4c0,0-.2,0-.2,0-2.2.7-3.5,3.1-2.7,5.4.2.5.4,1,.7,1.3-1.7,7.2-1.5,15,.9,22.5,2.4,7.4,6.7,13.9,12.5,18.8,0,.5,0,1,.2,1.5.7,2.2,3.1,3.5,5.4,2.7,0,0,.1,0,.2,0,.9.5,1.7,1,2.6,1.5,6,3.1,12.5,4.6,19,4.6s8.8-.7,13-2.1c3.1-1,6.1-2.4,8.8-4,.9.3,1.8.4,2.8,0,1.9-.6,3-2.4,2.9-4.2,4.1-3.5,7.4-7.8,9.9-12.7,4.6-9,5.7-19,3.5-28.7ZM75.9,28.9h-23.2s-7.2-22-7.2-22c4.6.4,9.1,1.7,13.3,3.9,7.7,3.9,13.7,10.3,17.1,18.1ZM71.9,33.9l-14.2,10.3-3.4-10.3h17.5ZM30.6,8.5c2.7-.9,5.4-1.4,8.2-1.7.5.7,1.2,1.1,2,1.4l6.7,20.7H8.1c4.1-9.3,12-17,22.5-20.4ZM6.8,55.2c-2.1-6.5-2.3-13.2-.9-19.5l1,.7,1.8-2.4h40.4c0,0,4.4,13.3,4.4,13.3l-13.2,9.6,1.2-1.7-4-2.9-2.9,4,3.2,2.3-17.7,12.9c-.8-.2-1.6-.3-2.4,0-5-4.4-8.8-10-10.9-16.5ZM53.5,78.9c-9.4,3.1-19.4,2.3-28.2-2.2-.7-.3-1.3-.7-2-1.1l18.8-13.7,2.8,2.1,2.9-4-1.5-1.1,8.8-6.4,6.5,20.1-1.7,2.4,1,.8c-2.3,1.4-4.8,2.5-7.4,3.4ZM75,60.6c-2.1,4.2-5,7.9-8.5,10.9l-7.2-22.2,18.8-13.7c1.9,8.4.9,17.2-3.1,25Z"/>
    <rect class="cls-1" x="29.2" y="48.9" width="5" height="4.9" transform="translate(-28.5 46.8) rotate(-54)"/>
    <rect class="cls-1" x="10.2" y="35.1" width="5" height="4.9" transform="translate(-25.1 25.8) rotate(-54)"/>
    <rect class="cls-1" x="48.2" y="62.6" width="5" height="4.9" transform="translate(-31.8 67.8) rotate(-54)"/>
    <rect class="cls-1" x="22.9" y="44.3" width="5" height="4.9" transform="translate(-27.3 39.8) rotate(-54)"/>
    <rect class="cls-1" x="54.5" y="67.2" width="5" height="4.9" transform="translate(-32.9 74.9) rotate(-54)"/>
    <rect class="cls-1" x="16.6" y="39.7" width="5" height="4.9" transform="translate(-26.2 32.8) rotate(-54)"/>
  </g>
</svg>